<svg version="1" xmlns="http://www.w3.org/2000/svg" width="341.333" height="341.333" viewBox="0 0 256.000000 256.000000"><path d="M74.8 12.5c-.2.2-2.7.5-5.6.9-6.3.7-9.7 2.8-10.9 6.4-2.3 7 1.5 10.5 10.7 10.3 5.9-.1 6-.1 6.1 2.6 0 1.6.1 31.4.1 66.3 0 36.4.3 64.8.9 66.5 2.5 8 22.2 14.3 38.6 12.3 8.5-1 17.7-5.3 22.8-10.7 2.4-2.5 5.2-7.1 6.9-11.4 2.5-6.2 2.9-8.6 3-17.2.1-16.5-1.8-23.2-9.1-32.2-9-11.2-30.8-15.2-44.5-8.2-2 1-4 1.9-4.3 1.9-.3 0-.5-19.1-.5-42.5V15l-2.3-1.5c-2-1.2-10.8-2-11.9-1zm45.6 96.4c9.6 4.9 13.7 14.1 13.1 29.6-.4 10.5-2.6 16.6-7.9 21.9-7.4 7.5-22.5 8.5-34.3 2.4-2.3-1.1-2.3-1.3-2.3-25.4v-24.3l3-2.1c7.9-5.6 19.7-6.5 28.4-2.1zM175.5 95.2c-9.9 1.3-20.1 5.5-24 9.8-2 2.2-2 3.8-2.3 68.6-.3 65.5-.2 66.4 1.8 68.4 1.2 1.2 3.3 2 5.4 2 7.2 0 6.6 5.9 6.6-67v-65.8l4.3-1.7c6.4-2.6 7.4-2.7 19-2.9 7.8-.2 11.1-.6 11.7-1.6 1-1.5.3-5.9-1.1-7.7-2-2.4-12-3.4-21.4-2.1zM75.5 206.3c.1 18.3.3 33.5.3 33.9.5 1.9 3.7 3.8 6.7 3.8 6.9 0 6.5 2.1 6.5-32.5v-31.3l-3.2-1.1c-1.8-.7-4.9-2.2-6.9-3.5l-3.6-2.4.2 33.1z"/></svg>